<svg width="36" height="36" viewBox="0 0 36 36" fill="none" xmlns="http://www.w3.org/2000/svg">
<path d="M0 18C0 8.05888 8.05888 0 18 0C27.9411 0 36 8.05888 36 18C36 27.9411 27.9411 36 18 36C8.05888 36 0 27.9411 0 18Z" fill="#DC6E3F"/>
<path d="M16.5 25.5V19.5H10.5C9.67157 19.5 9 18.8284 9 18C9 17.1716 9.67157 16.5 10.5 16.5H16.5V10.5C16.5 9.67157 17.1716 9 18 9C18.8284 9 19.5 9.67157 19.5 10.5V16.5H25.5C26.3284 16.5 27 17.1716 27 18C27 18.8284 26.3284 19.5 25.5 19.5H19.5V25.5C19.5 26.3284 18.8284 27 18 27C17.1716 27 16.5 26.3284 16.5 25.5Z" fill="#F7F6F2"/>
</svg>
