<svg width="24" height="31" viewBox="0 0 24 31" fill="none" xmlns="http://www.w3.org/2000/svg">
<path d="M0 5C0 2.79086 1.79086 1 4 1H20C22.2091 1 24 2.79086 24 5V21L19 25.5L14 31H4C1.79086 31 0 29.2091 0 27V5Z" fill="#F2A67A"/>
<path d="M5 9H9" stroke="#FEFDFA" stroke-width="2.5" stroke-linecap="round"/>
<path d="M5 14H13" stroke="#FEFDFA" stroke-width="2.5" stroke-linecap="round"/>
<path d="M16 1C16 0.447715 16.4477 0 17 0H19C19.5523 0 20 0.447715 20 1V4C20 5.10457 19.1046 6 18 6C16.8954 6 16 5.10457 16 4V1Z" fill="#DC6E3F"/>
<path d="M24 21H18C15.7909 21 14 22.7909 14 25V31L19 26L24 21Z" fill="#DC6E3F"/>
</svg>
