<svg width="16" height="16" viewBox="0 0 16 16" fill="none" xmlns="http://www.w3.org/2000/svg">
<path d="M8 0.833008C8.27603 0.833008 8.49982 1.05702 8.5 1.33301C8.5 1.60915 8.27614 1.83301 8 1.83301H4C2.80338 1.83301 1.83301 2.80338 1.83301 4V12C1.83301 13.1966 2.80338 14.167 4 14.167H12C13.1966 14.167 14.167 13.1966 14.167 12V8C14.167 7.72386 14.3909 7.5 14.667 7.5C14.943 7.50018 15.167 7.72397 15.167 8V12C15.167 13.7489 13.7489 15.167 12 15.167H4C2.2511 15.167 0.833008 13.7489 0.833008 12V4C0.833008 2.2511 2.2511 0.833008 4 0.833008H8ZM9.2373 3.49414C9.54961 4.08194 10.0092 4.82369 10.5928 5.40723C11.1763 5.99076 11.9181 6.45039 12.5059 6.7627L8.70703 10.5625C8.47127 10.7983 8.16502 10.9509 7.83496 10.998L5.54688 11.3252C5.03832 11.3978 4.60215 10.9617 4.6748 10.4531L5.00195 8.16504C5.04913 7.83498 5.20174 7.52873 5.4375 7.29297L9.2373 3.49414ZM10.9463 1.78516C11.5481 1.1833 12.5241 1.1833 13.126 1.78516L14.2148 2.87402C14.8167 3.47588 14.8167 4.45186 14.2148 5.05371L13.249 6.02051C13.1732 5.98296 13.0935 5.94199 13.0107 5.89844C12.4538 5.60523 11.7931 5.19344 11.2998 4.7002C10.8066 4.20695 10.3948 3.5462 10.1016 2.98926C10.058 2.90653 10.017 2.82681 9.97949 2.75098L10.9463 1.78516Z" fill="#DC6E3F"/>
</svg>
