<svg width="12" height="14" viewBox="0 0 12 14" fill="none" xmlns="http://www.w3.org/2000/svg">
<path d="M10.667 3.66699V11C10.667 12.4728 9.47276 13.667 8 13.667H4C2.52724 13.667 1.33301 12.4728 1.33301 11V3.66699H10.667ZM4.66699 5.83301C4.39096 5.83301 4.16717 6.05702 4.16699 6.33301V11C4.16699 11.2761 4.39085 11.5 4.66699 11.5C4.94298 11.4998 5.16699 11.276 5.16699 11V6.33301C5.16682 6.05712 4.94288 5.83318 4.66699 5.83301ZM7.33301 5.83301C7.05712 5.83318 6.83318 6.05712 6.83301 6.33301V11C6.83301 11.276 7.05702 11.4998 7.33301 11.5C7.60915 11.5 7.83301 11.2761 7.83301 11V6.33301C7.83283 6.05702 7.60904 5.83301 7.33301 5.83301ZM6.62012 0.333008C7.06576 0.333129 7.48227 0.555962 7.72949 0.926758L8.33301 1.83301H10.833C11.109 1.83301 11.3328 2.05702 11.333 2.33301C11.333 2.60915 11.1091 2.83301 10.833 2.83301H1.16699C0.89085 2.83301 0.666992 2.60915 0.666992 2.33301C0.667168 2.05702 0.890958 1.83301 1.16699 1.83301H3.66699L4.27051 0.926758C4.51773 0.555961 4.93424 0.333128 5.37988 0.333008H6.62012Z" fill="#DC6E3F"/>
</svg>
