<svg width="72" height="60" viewBox="0 0 72 60" fill="none" xmlns="http://www.w3.org/2000/svg">
<path d="M64 0C68.4181 0 71.9997 3.58195 72 8V42.0801C72 46.4984 68.4183 50.0801 64 50.0801H44.9629C43.8956 50.0801 42.9086 50.6472 42.3711 51.5693L38.5918 58.0537C37.4343 60.039 34.5657 60.039 33.4082 58.0537L29.6289 51.5693C29.0914 50.6472 28.1044 50.0801 27.0371 50.0801H8C3.58172 50.0801 0 46.4984 0 42.0801V8C0.000263333 3.58195 3.58188 3.22097e-08 8 0H64ZM23.668 26.208C19.2495 26.2083 15.6672 29.7908 15.667 34.209C15.6671 35.6816 16.8613 36.8758 18.334 36.876H36.1143C37.5869 36.8757 38.7821 35.6816 38.7822 34.209C38.782 29.7908 35.1988 26.2082 30.7803 26.208H23.668ZM49.2256 18.8125C48.4933 18.8126 47.8998 19.4374 47.8994 20.208V23.6094H44.6797C43.9406 23.6094 43.3411 24.2407 43.3408 25.0186C43.3408 25.7966 43.9405 26.4277 44.6797 26.4277H47.8994V29.8291C47.8995 30.6 48.4931 31.2245 49.2256 31.2246C49.9579 31.2244 50.5517 30.5999 50.5518 29.8291V26.4277H53.7959C54.5349 26.4275 55.1348 25.7965 55.1348 25.0186C55.1345 24.2409 54.5348 23.6096 53.7959 23.6094H50.5518V20.208C50.5514 19.4375 49.9577 18.8127 49.2256 18.8125ZM27.2246 11.9854C23.7878 11.9854 21.0012 14.7716 21.001 18.208C21.001 21.6446 23.7877 24.4307 27.2246 24.4307C30.6612 24.4303 33.4472 21.6444 33.4473 18.208C33.447 14.7718 30.661 11.9858 27.2246 11.9854Z" fill="#F2A67A"/>
</svg>
