<svg width="24" height="24" viewBox="0 0 24 24" fill="none" xmlns="http://www.w3.org/2000/svg">
<path d="M14.5765 18.5C14.8102 18.5 15.0001 18.6893 15.0004 18.9229C15.0004 18.9735 14.9911 19.0243 14.972 19.0713C14.5147 20.1989 13.3567 20.9999 12.0004 21C10.6438 21 9.48508 20.199 9.02771 19.0713C9.00871 19.0243 9.00037 18.9735 9.00037 18.9229C9.0006 18.6893 9.18962 18.5 9.42322 18.5H14.5765ZM12.0004 3C15.2292 3.00019 17.9465 5.49092 18.3207 8.79395L18.6654 11.8389C18.7512 12.5951 19.0575 13.3068 19.5443 13.8799C20.5776 15.0961 19.7393 16.9997 18.1703 17H5.83044C4.26112 17 3.42204 15.0962 4.45544 13.8799C4.94229 13.3068 5.24859 12.5952 5.33435 11.8389L5.68005 8.79395C6.0543 5.49083 8.77135 3 12.0004 3Z" fill="#DC6E3F"/>
</svg>
