<svg width="26" height="26" viewBox="0 0 26 26" fill="none" xmlns="http://www.w3.org/2000/svg">
<rect width="26" height="26" rx="12" fill="#F2A67A"/>
<path d="M11.9999 10.6802V7.6535C11.9999 6.7135 11.5733 6.3335 10.5133 6.3335H7.81992C6.75992 6.3335 6.33325 6.7135 6.33325 7.6535V10.6735C6.33325 11.6202 6.75992 11.9935 7.81992 11.9935H10.5133C11.5733 12.0002 11.9999 11.6202 11.9999 10.6802Z" fill="#FEFDFA"/>
<path d="M11.9999 18.18V15.4867C11.9999 14.4267 11.5733 14 10.5133 14H7.81992C6.75992 14 6.33325 14.4267 6.33325 15.4867V18.18C6.33325 19.24 6.75992 19.6667 7.81992 19.6667H10.5133C11.5733 19.6667 11.9999 19.24 11.9999 18.18Z" fill="#FEFDFA"/>
<path d="M14.0833 7H20.0833" stroke="#FEFDFA" stroke-width="1.5" stroke-linecap="round"/>
<path d="M14.0833 16H20.0833" stroke="#FEFDFA" stroke-width="1.5" stroke-linecap="round"/>
<path d="M14.0833 10H20.0833" stroke="#FEFDFA" stroke-width="1.5" stroke-linecap="round"/>
<path d="M14.0833 19H20.0833" stroke="#FEFDFA" stroke-width="1.5" stroke-linecap="round"/>
</svg>
