<svg width="16" height="16" viewBox="0 0 16 16" fill="none" xmlns="http://www.w3.org/2000/svg">
<path d="M0.261088 14.4673C-0.0819663 14.8105 -0.0920561 15.3958 0.261088 15.7389C0.614233 16.082 1.19944 16.082 1.5425 15.7389L8 9.28035L14.4575 15.7389C14.8006 16.082 15.3959 16.0921 15.7389 15.7389C16.082 15.3857 16.082 14.8105 15.7389 14.4673L9.28141 7.99874L15.7389 1.54022C16.082 1.19711 16.0921 0.611807 15.7389 0.268698C15.3858 -0.0845025 14.8006 -0.0845025 14.4575 0.268698L8 6.72722L1.5425 0.268698C1.19944 -0.0845025 0.604143 -0.0945939 0.261088 0.268698C-0.0819663 0.621898 -0.0819663 1.19711 0.261088 1.54022L6.71859 7.99874L0.261088 14.4673Z" fill="white"/>
</svg>
