<svg width="78" height="60" viewBox="0 0 78 60" fill="none" xmlns="http://www.w3.org/2000/svg">
<path opacity="0.88" d="M39 4.00024C24.0883 4.00024 12 16.0885 12 31.0002C12 45.912 24.0883 58.0002 39 58.0002C53.9117 58.0002 66 45.912 66 31.0002C66 16.0885 53.9117 4.00024 39 4.00024ZM28.5987 32.4814C26.6347 32.4814 25.0422 30.8889 25.0422 28.925C25.0422 26.961 26.6347 25.3685 28.5987 25.3685C30.5626 25.3685 32.1551 26.961 32.1551 28.925C32.1551 30.8889 30.5626 32.4814 28.5987 32.4814ZM45.5955 39.9809C45.4013 40.2001 45.1225 40.3256 44.8295 40.3256C44.3129 40.3256 43.8765 39.9373 43.8132 39.4234C43.5175 37.0096 41.4583 36.19 39.0249 36.19C36.5916 36.19 34.5324 37.0096 34.2367 39.4234C34.1734 39.9382 33.737 40.3256 33.2204 40.3256C32.9274 40.3256 32.6486 40.2001 32.4544 39.9809C32.2585 39.7601 32.1676 39.4644 32.2032 39.1704C32.6263 35.7333 35.5584 34.1414 39.0249 34.1414C42.4915 34.1414 45.4236 35.7333 45.8466 39.1704C45.8832 39.4644 45.7914 39.7601 45.5955 39.9809ZM49.4521 32.4814C47.4873 32.4814 45.8956 30.8889 45.8956 28.925C45.8956 26.961 47.4882 25.3685 49.4521 25.3685C51.416 25.3685 53.0086 26.961 53.0086 28.925C53.0086 30.8889 51.416 32.4814 49.4521 32.4814Z" fill="#F2A67A"/>
<path opacity="0.88" d="M39 4.00024C24.0883 4.00024 12 16.0885 12 31.0002C12 45.912 24.0883 58.0002 39 58.0002C53.9117 58.0002 66 45.912 66 31.0002C66 16.0885 53.9117 4.00024 39 4.00024ZM28.5987 32.4814C26.6347 32.4814 25.0422 30.8889 25.0422 28.925C25.0422 26.961 26.6347 25.3685 28.5987 25.3685C30.5626 25.3685 32.1551 26.961 32.1551 28.925C32.1551 30.8889 30.5626 32.4814 28.5987 32.4814ZM45.5955 39.9809C45.4013 40.2001 45.1225 40.3256 44.8295 40.3256C44.3129 40.3256 43.8765 39.9373 43.8132 39.4234C43.5175 37.0096 41.4583 36.19 39.0249 36.19C36.5916 36.19 34.5324 37.0096 34.2367 39.4234C34.1734 39.9382 33.737 40.3256 33.2204 40.3256C32.9274 40.3256 32.6486 40.2001 32.4544 39.9809C32.2585 39.7601 32.1676 39.4644 32.2032 39.1704C32.6263 35.7333 35.5584 34.1414 39.0249 34.1414C42.4915 34.1414 45.4236 35.7333 45.8466 39.1704C45.8832 39.4644 45.7914 39.7601 45.5955 39.9809ZM49.4521 32.4814C47.4873 32.4814 45.8956 30.8889 45.8956 28.925C45.8956 26.961 47.4882 25.3685 49.4521 25.3685C51.416 25.3685 53.0086 26.961 53.0086 28.925C53.0086 30.8889 51.416 32.4814 49.4521 32.4814Z" fill="#F2A67A"/>
<path opacity="0.88" d="M39 4.00024C24.0883 4.00024 12 16.0885 12 31.0002C12 45.912 24.0883 58.0002 39 58.0002C53.9117 58.0002 66 45.912 66 31.0002C66 16.0885 53.9117 4.00024 39 4.00024ZM28.5987 32.4814C26.6347 32.4814 25.0422 30.8889 25.0422 28.925C25.0422 26.961 26.6347 25.3685 28.5987 25.3685C30.5626 25.3685 32.1551 26.961 32.1551 28.925C32.1551 30.8889 30.5626 32.4814 28.5987 32.4814ZM45.5955 39.9809C45.4013 40.2001 45.1225 40.3256 44.8295 40.3256C44.3129 40.3256 43.8765 39.9373 43.8132 39.4234C43.5175 37.0096 41.4583 36.19 39.0249 36.19C36.5916 36.19 34.5324 37.0096 34.2367 39.4234C34.1734 39.9382 33.737 40.3256 33.2204 40.3256C32.9274 40.3256 32.6486 40.2001 32.4544 39.9809C32.2585 39.7601 32.1676 39.4644 32.2032 39.1704C32.6263 35.7333 35.5584 34.1414 39.0249 34.1414C42.4915 34.1414 45.4236 35.7333 45.8466 39.1704C45.8832 39.4644 45.7914 39.7601 45.5955 39.9809ZM49.4521 32.4814C47.4873 32.4814 45.8956 30.8889 45.8956 28.925C45.8956 26.961 47.4882 25.3685 49.4521 25.3685C51.416 25.3685 53.0086 26.961 53.0086 28.925C53.0086 30.8889 51.416 32.4814 49.4521 32.4814Z" fill="#F2A67A"/>
<path d="M69.5768 2.25182C70.7953 1.59186 72.3091 2.29103 72.5859 3.64158L75.2673 16.7277C75.9636 20.1261 76.1651 23.6061 75.8655 27.0614L75.5907 30.2311C75.3307 33.2295 72.8038 35.5321 69.773 35.5321C69.2049 35.5321 68.7444 35.9926 68.7444 36.5607V55.628C68.7444 56.9382 67.6823 58.0002 66.3722 58.0002C65.0621 58.0002 64 56.9382 64 55.628V11.5801C64 7.69163 66.139 4.11381 69.5768 2.25182Z" fill="#F2A67A"/>
<path d="M62 55.6282V11.5804C62 6.95299 64.5454 2.70265 68.624 0.493459C71.0089 -0.798237 73.9956 0.559973 74.5449 3.24053L77.2266 16.3265C77.9615 19.9134 78.1745 23.5866 77.8584 27.2337L77.583 30.4036C77.2608 34.1198 74.3606 37.0237 70.7441 37.47V55.6282C70.7441 58.0429 68.7867 60.0003 66.3721 60.0003C63.9575 60.0002 62.0001 58.0428 62 55.6282ZM64 55.6282L64.0127 55.8704C64.1341 57.0667 65.1438 58.0002 66.3721 58.0003C67.6004 58.0003 68.6111 57.0667 68.7324 55.8704L68.7441 55.6282V36.5608C68.7441 35.9928 69.2054 35.5325 69.7734 35.5325C72.7093 35.5323 75.1722 33.371 75.5596 30.5101L75.5908 30.2308L75.8652 27.0618C76.1461 23.8224 75.9865 20.5608 75.3916 17.3655L75.2676 16.7278L72.5859 3.6419C72.3092 2.29139 70.7956 1.59239 69.5771 2.25225L69.2588 2.43096C66.0076 4.33725 64 7.81325 64 11.5804V55.6282Z" fill="#FEFDFA"/>
<path d="M16.8526 5.00024C18.0386 5.00024 19 5.98895 19 7.20858V24.8752C19 28.5341 16.1158 31.5002 12.5579 31.5002C12.4591 31.5002 12.3789 31.5804 12.3789 31.6792V56.16C12.3789 57.1763 11.5778 58.0002 10.5895 58.0002C9.60117 58.0002 8.8 57.1763 8.8 56.16V31.8581C8.8 31.6605 8.63977 31.5002 8.44211 31.5002C4.88423 31.5002 2 28.5341 2 24.8752V7.20858C2 5.98895 2.96141 5.00024 4.14737 5.00024C5.33333 5.00024 6.29474 5.98895 6.29474 7.20858V16.9041C6.29474 17.4819 6.78297 17.9394 7.35954 17.902L7.50691 17.8924C8.03293 17.8583 8.44211 17.4217 8.44211 16.8945V7.20858C8.44211 5.98895 9.40351 5.00024 10.5895 5.00024C11.7754 5.00024 12.7368 5.98895 12.7368 7.20858V16.921C12.7368 17.4398 13.1396 17.8695 13.6573 17.9031C14.2248 17.94 14.7053 17.4896 14.7053 16.921V7.20858C14.7053 5.98895 15.6667 5.00024 16.8526 5.00024Z" fill="#F2A67A"/>
<path d="M14.7002 17.0256C14.6492 17.5092 14.2485 17.8847 13.7627 17.9045L13.6572 17.9036C13.1718 17.872 12.7872 17.4918 12.7412 17.0168L12.7373 16.9211V7.20825C12.7371 6.06486 11.8915 5.12485 10.8086 5.01196L10.5898 5.00024C9.40399 5.00024 8.44255 5.98877 8.44238 7.20825V16.8948L8.4375 16.9924C8.39053 17.4748 7.99991 17.8608 7.50684 17.8928L7.35938 17.9016C6.81894 17.9366 6.35657 17.5371 6.30078 17.011L6.29492 16.9045V7.20825C6.29476 6.0651 5.44977 5.12518 4.36719 5.01196L4.14746 5.00024C2.96161 5.00024 2.00017 5.98877 2 7.20825V24.8752C2 28.5341 4.88451 31.5002 8.44238 31.5002C8.63976 31.5004 8.79955 31.6603 8.7998 31.8577V56.1604C8.80002 57.1129 9.50417 57.8961 10.4062 57.9905L10.5898 58.0002C11.5163 58.0001 12.2786 57.2759 12.3701 56.3479L12.3789 56.1604V31.679C12.379 31.5803 12.459 31.5004 12.5576 31.5002C16.1155 31.5002 19 28.5341 19 24.8752V7.20825C18.9998 5.98877 18.0384 5.00024 16.8525 5.00024C15.6667 5.0003 14.7052 5.9888 14.7051 7.20825V16.9211L14.7002 17.0256ZM21 24.8752C21 28.9593 18.1973 32.4424 14.3789 33.2971V56.1604C14.3787 58.2279 12.7348 60 10.5898 60.0002C8.44471 60.0002 6.80004 58.228 6.7998 56.1604V33.3352C2.89043 32.5508 0 29.0228 0 24.8752V7.20825C0.000172511 4.93734 1.80463 3.00024 4.14746 3.00024C5.46786 3.00027 6.61644 3.61622 7.36816 4.55981C8.1199 3.61605 9.26929 3.00024 10.5898 3.00024C11.8591 3.00035 12.9689 3.57017 13.7207 4.45239C14.4726 3.5699 15.583 3.00027 16.8525 3.00024C19.1954 3.00024 20.9998 4.93734 21 7.20825V24.8752Z" fill="#FEFDFA"/>
</svg>
