<svg width="24" height="24" viewBox="0 0 24 24" fill="none" xmlns="http://www.w3.org/2000/svg">
<g clip-path="url(#clip0_650_6186)">
<g filter="url(#filter0_d_650_6186)">
<path d="M15.2002 12.0005C15.2 13.7677 13.7674 15.2007 12 15.2007H7.2002C5.43283 15.2007 3.9992 13.7677 3.99902 12.0005V7.19971C3.99922 5.43252 5.43284 3.99951 7.2002 3.99951H12C13.7674 3.99951 15.2 5.43252 15.2002 7.19971V12.0005ZM20 16.8003C19.9999 18.5675 18.5672 20.0004 16.7998 20.0005H11.999C10.2317 20.0004 8.79893 18.5675 8.79883 16.8003V16.3999H12.5137C14.6599 16.3999 16.3994 14.6602 16.3994 12.5142V8.80029H16.7998C18.5671 8.80035 19.9997 10.2324 20 11.9995V16.8003Z" fill="#FEFDFA" fill-opacity="0.8" shape-rendering="crispEdges"/>
</g>
</g>
<defs>
<filter id="filter0_d_650_6186" x="0" y="-0.000488281" width="24" height="24.001" filterUnits="userSpaceOnUse" color-interpolation-filters="sRGB">
<feFlood flood-opacity="0" result="BackgroundImageFix"/>
<feColorMatrix in="SourceAlpha" type="matrix" values="0 0 0 0 0 0 0 0 0 0 0 0 0 0 0 0 0 0 127 0" result="hardAlpha"/>
<feOffset/>
<feGaussianBlur stdDeviation="2"/>
<feComposite in2="hardAlpha" operator="out"/>
<feColorMatrix type="matrix" values="0 0 0 0 0.516958 0 0 0 0 0.486105 0 0 0 0 0.43762 0 0 0 0.2 0"/>
<feBlend mode="multiply" in2="BackgroundImageFix" result="effect1_dropShadow_650_6186"/>
<feBlend mode="normal" in="SourceGraphic" in2="effect1_dropShadow_650_6186" result="shape"/>
</filter>
<clipPath id="clip0_650_6186">
<rect width="24" height="24" fill="white" transform="matrix(0 1 -1 0 24 0)"/>
</clipPath>
</defs>
</svg>
