<svg width="26" height="26" viewBox="0 0 26 26" fill="none" xmlns="http://www.w3.org/2000/svg">
<rect width="26" height="26" rx="12" fill="#F2A67A"/>
<path d="M18.2666 14H7.73325C6.73325 14 6.33325 14.4267 6.33325 15.4867V18.18C6.33325 19.24 6.73325 19.6667 7.73325 19.6667H18.2666C19.2666 19.6667 19.6666 19.24 19.6666 18.18V15.4867C19.6666 14.4267 19.2666 14 18.2666 14Z" fill="#FEFDFA"/>
<path d="M18.2666 6.3335H7.73325C6.73325 6.3335 6.33325 6.76016 6.33325 7.82016V10.5135C6.33325 11.5735 6.73325 12.0002 7.73325 12.0002H18.2666C19.2666 12.0002 19.6666 11.5735 19.6666 10.5135V7.82016C19.6666 6.76016 19.2666 6.3335 18.2666 6.3335Z" fill="#FEFDFA"/>
</svg>
