<svg width="135" height="128" viewBox="0 0 135 128" fill="none" xmlns="http://www.w3.org/2000/svg">
<path d="M117.028 83.8904C122.579 83.8904 126.868 85.2137 129.895 87.8602C132.965 90.4648 134.5 94.1405 134.5 98.8875C134.5 103.845 132.965 107.709 129.895 110.482C126.868 113.213 122.579 114.578 117.028 114.578H103.593L106.873 111.301V126.059C106.873 127.131 106.004 128 104.931 128H101.372C100.3 128 99.4301 127.131 99.4301 126.059V85.8305C99.4301 84.759 100.3 83.8904 101.372 83.8904H117.028ZM116.713 108.213C120.119 108.213 122.747 107.478 124.597 106.008C126.447 104.496 127.372 102.185 127.372 99.0766C127.372 96.0939 126.447 93.8885 124.597 92.4602C122.747 90.9899 120.119 90.2547 116.713 90.2547H103.593L106.873 86.9781V111.49L103.593 108.213H116.713Z" fill="#60594E"/>
<path d="M19.7854 83.8909C22.855 83.8909 25.4832 84.332 27.6698 85.2141C29.8984 86.0963 31.6015 87.3566 32.7789 88.9949C33.9983 90.6333 34.6081 92.6077 34.6081 94.9182C34.6081 97.3967 33.9142 99.5181 32.5266 101.282C31.1389 103.047 29.2466 104.202 26.8498 104.748C29.7933 105.252 32.1061 106.492 33.7881 108.466C35.4701 110.44 36.3111 112.919 36.3111 115.902C36.3111 118.422 35.6593 120.585 34.3558 122.392C33.0522 124.198 31.202 125.584 28.8051 126.551C26.4083 127.517 23.5488 128 20.2269 128H2.55248C1.47993 128 0.610446 127.131 0.610446 126.06V85.831C0.610446 84.7595 1.47992 83.8909 2.55248 83.8909H19.7854ZM19.4069 102.228C21.7617 102.228 23.6119 101.703 24.9575 100.652C26.3031 99.5601 26.9759 98.0478 26.9759 96.1154C26.9759 94.225 26.3031 92.7757 24.9575 91.7675C23.6119 90.7173 21.7617 90.2132 19.4069 90.2552H9.99537C8.92281 90.2552 8.05334 91.1238 8.05334 92.1953V100.288C8.05334 101.359 8.92281 102.228 9.99537 102.228H19.4069ZM19.4069 121.636C22.3084 121.678 24.5791 121.132 26.219 119.997C27.859 118.821 28.679 117.162 28.679 115.019C28.679 113.003 27.859 111.428 26.219 110.293C24.5791 109.117 22.3084 108.55 19.4069 108.592H9.99537C8.92281 108.592 8.05334 109.461 8.05334 110.532V119.696C8.05334 120.767 8.92281 121.636 9.99537 121.636H19.4069Z" fill="#60594E"/>
<path d="M116.92 0C122.47 0 126.76 1.32327 129.787 3.96982C132.857 6.57436 134.392 10.2501 134.392 14.9971C134.392 19.9541 132.857 23.8189 129.787 26.5915C126.76 29.3221 122.47 30.6874 116.92 30.6874H103.485L106.765 27.4107V42.169C106.765 43.2405 105.895 44.1091 104.823 44.1091H101.264C100.191 44.1091 99.3218 43.2405 99.3218 42.169V1.94011C99.3218 0.868618 100.191 0 101.264 0H116.92ZM116.604 24.323C120.011 24.323 122.639 23.5879 124.489 22.1176C126.339 20.6053 127.264 18.2948 127.264 15.1861C127.264 12.2035 126.339 9.99807 124.489 8.56978C122.639 7.09947 120.011 6.36432 116.604 6.36432H103.485L106.765 3.08764V27.5997L103.485 24.323H116.604Z" fill="#60594E"/>
<path d="M62.6059 1.94011C62.6059 0.868618 63.4754 0 64.548 0H68.1068C69.1793 0 70.0488 0.868618 70.0488 1.94011V42.169C70.0488 43.2405 69.1793 44.1091 68.1068 44.1091H64.548C63.4754 44.1091 62.6059 43.2405 62.6059 42.169V1.94011Z" fill="#60594E"/>
<path d="M46.2472 104.855C46.2472 103.966 46.9684 103.246 47.858 103.246H87.3897C88.2794 103.246 89.0005 103.966 89.0005 104.855V106.296C89.0005 118.091 79.4299 127.652 67.6239 127.652C55.8179 127.652 46.2472 118.091 46.2472 106.296V104.855Z" fill="#DC6E3F"/>
<path d="M79.8392 103.245C79.8392 96.5059 74.3702 91.0423 67.6239 91.0423C60.8776 91.0423 55.4087 96.5059 55.4087 103.245C55.4087 109.985 60.8776 115.449 67.6239 115.449V120.533C58.0667 120.533 50.319 112.793 50.319 103.245C50.319 93.6977 58.0667 85.9576 67.6239 85.9576C77.1812 85.9576 84.9288 93.6977 84.9288 103.245C84.9288 112.793 77.1812 120.533 67.6239 120.533V115.449C74.3702 115.449 79.8392 109.985 79.8392 103.245Z" fill="#DC6E3F"/>
<path d="M1.29819 2.75892C1.29819 1.68742 2.16766 0.818806 3.24022 0.818806H34.5378C35.6104 0.818806 36.4798 1.68742 36.4798 2.75892V5.03161C36.4798 5.48052 36.324 5.91554 36.0389 6.26252L10.3238 37.5605H34.8448C35.9174 37.5605 36.7868 38.4291 36.7868 39.5006V41.8156C36.7868 42.8871 35.9174 43.7557 34.8448 43.7557H2.44203C1.36948 43.7557 0.5 42.8871 0.5 41.8156V39.5442C0.5 39.0945 0.656356 38.6588 0.942334 38.3115L26.7174 7.01399H3.24022C2.16766 7.01399 1.29819 6.14537 1.29819 5.07387V2.75892Z" fill="#60594E"/>
</svg>
