<svg width="20" height="20" viewBox="0 0 20 20" fill="none" xmlns="http://www.w3.org/2000/svg">
<path opacity="0.4" d="M20 10C20 13.0134 18.6672 15.7154 16.5588 17.5488C14.8031 19.0756 12.5095 20 10 20C7.49052 20 5.19694 19.0756 3.44117 17.5488C1.33285 15.7154 0 13.0134 0 10C0 4.47715 4.47715 0 10 0C15.5228 0 20 4.47715 20 10Z" fill="#28303F"/>
<circle cx="10" cy="8" r="3" fill="#28303F"/>
<path d="M16.5588 17.5488C15.5654 14.8918 13.0036 13 10 13C6.99637 13 4.43459 14.8918 3.44116 17.5488C5.19693 19.0756 7.49052 20 10 20C12.5095 20 14.8031 19.0756 16.5588 17.5488Z" fill="#28303F"/>
</svg>
