<svg width="17" height="12" viewBox="0 0 17 12" fill="none" xmlns="http://www.w3.org/2000/svg">
<path d="M15.6582 10.2109C16.1231 10.2111 16.4999 10.5878 16.5 11.0527C16.5 11.5177 16.1231 11.8944 15.6582 11.8945H1.3418C0.876857 11.8944 0.5 11.5177 0.5 11.0527C0.500056 10.5878 0.876891 10.2111 1.3418 10.2109H15.6582ZM8.5 0.105469C8.96498 0.105469 9.34163 0.482326 9.3418 0.947266V1.41406C12.8062 1.77642 15.6131 4.34822 16.3252 7.69629C16.5186 8.60608 15.7456 9.36816 14.8154 9.36816H2.18457C1.25443 9.36816 0.481356 8.60608 0.674805 7.69629C1.38687 4.34822 4.19378 1.77642 7.6582 1.41406V0.947266C7.65837 0.482326 8.03502 0.105469 8.5 0.105469Z" fill="#DC6E3F"/>
</svg>
