<svg width="21" height="18" viewBox="0 0 21 18" fill="none" xmlns="http://www.w3.org/2000/svg">
<path fill-rule="evenodd" clip-rule="evenodd" d="M9.5 0H11.5C16.4706 0 20.5 4.02944 20.5 9C20.5 13.9706 16.4706 18 11.5 18H4.5C2.29086 18 0.5 16.2091 0.5 14V9C0.5 4.02944 4.52944 0 9.5 0ZM10.5 10C11.0523 10 11.5 9.55229 11.5 9C11.5 8.44771 11.0523 8 10.5 8C9.94771 8 9.5 8.44771 9.5 9C9.5 9.55229 9.94771 10 10.5 10ZM15.5 9C15.5 9.55229 15.0523 10 14.5 10C13.9477 10 13.5 9.55229 13.5 9C13.5 8.44771 13.9477 8 14.5 8C15.0523 8 15.5 8.44771 15.5 9ZM6.5 10C7.05228 10 7.5 9.55229 7.5 9C7.5 8.44771 7.05228 8 6.5 8C5.94772 8 5.5 8.44771 5.5 9C5.5 9.55229 5.94772 10 6.5 10Z" fill="#AEA79C"/>
</svg>
