<svg width="19" height="18" viewBox="0 0 19 18" fill="none" xmlns="http://www.w3.org/2000/svg">
<path d="M9.5 1.5C5.3675 1.5 2 4.8675 2 9C2 13.1325 5.3675 16.5 9.5 16.5C13.6325 16.5 17 13.1325 17 9C17 4.8675 13.6325 1.5 9.5 1.5ZM12.7625 11.6775C12.6575 11.8575 12.47 11.955 12.275 11.955C12.1775 11.955 12.08 11.9325 11.99 11.8725L9.665 10.485C9.0875 10.14 8.66 9.3825 8.66 8.715V5.64C8.66 5.3325 8.915 5.0775 9.2225 5.0775C9.53 5.0775 9.785 5.3325 9.785 5.64V8.715C9.785 8.985 10.01 9.3825 10.2425 9.5175L12.5675 10.905C12.8375 11.0625 12.9275 11.4075 12.7625 11.6775Z" fill="#DC6E3F"/>
</svg>
