<svg width="16" height="16" viewBox="0 0 16 16" fill="none" xmlns="http://www.w3.org/2000/svg">
<path fill-rule="evenodd" clip-rule="evenodd" d="M16 2.8C16 4.3464 14.7464 5.6 13.2 5.6C12.319 5.6 11.5331 5.19313 11.0198 4.55706C11.0018 4.56862 10.983 4.57934 10.9634 4.58913L5.57327 7.28419C5.55386 7.29389 5.53418 7.30244 5.51431 7.30987C5.57027 7.53063 5.6 7.76184 5.6 8C5.6 8.23816 5.57027 8.46938 5.51431 8.69014C5.53418 8.69757 5.55386 8.70612 5.57327 8.71582L10.9634 11.4109C10.983 11.4207 11.0018 11.4314 11.0198 11.4429C11.5331 10.8069 12.319 10.4 13.2 10.4C14.7464 10.4 16 11.6536 16 13.2C16 14.7464 14.7464 16 13.2 16C11.6536 16 10.4 14.7464 10.4 13.2C10.4 12.9618 10.4297 12.7306 10.4857 12.5099C10.4658 12.5024 10.4461 12.4939 10.4267 12.4842L5.03661 9.78913C5.01703 9.77934 4.99822 9.76862 4.9802 9.75706C4.46693 10.3931 3.68098 10.8 2.8 10.8C1.2536 10.8 0 9.5464 0 8C0 6.4536 1.2536 5.2 2.8 5.2C3.68098 5.2 4.46694 5.60687 4.98021 6.24295C4.99822 6.23138 5.01703 6.22067 5.03661 6.21088L10.4267 3.51582C10.4461 3.50612 10.4658 3.49756 10.4857 3.49014C10.4297 3.26938 10.4 3.03816 10.4 2.8C10.4 1.2536 11.6536 0 13.2 0C14.7464 0 16 1.2536 16 2.8Z" fill="#DC6E3F"/>
</svg>
