<svg width="18" height="16" viewBox="0 0 18 16" fill="none" xmlns="http://www.w3.org/2000/svg">
<path d="M7.61497 1.00501C8.12736 -0.226929 9.87254 -0.226932 10.3849 1.00501L11.5576 3.82454C11.7737 4.34389 12.2621 4.69875 12.8228 4.7437L15.8667 4.98773C17.1967 5.09435 17.7359 6.75411 16.7226 7.62212L14.4035 9.60871C13.9763 9.97464 13.7898 10.5488 13.9203 11.0959L14.6288 14.0663C14.9384 15.3641 13.5265 16.3899 12.3879 15.6944L9.78183 14.1027C9.30181 13.8095 8.69809 13.8095 8.21807 14.1027L5.61205 15.6944C4.4734 16.3899 3.06152 15.3641 3.3711 14.0663L4.07964 11.0959C4.21015 10.5488 4.02359 9.97464 3.59641 9.60871L1.27727 7.62212C0.26396 6.75411 0.803247 5.09435 2.13323 4.98773L5.17715 4.7437C5.73783 4.69875 6.22625 4.34389 6.44226 3.82454L7.61497 1.00501Z" fill="#DC6E3F"/>
</svg>
