<svg width="18" height="18" viewBox="0 0 18 18" fill="none" xmlns="http://www.w3.org/2000/svg">
<path d="M7.61497 2.00501C8.12736 0.773071 9.87254 0.773068 10.3849 2.00501L11.5576 4.82454C11.7737 5.34389 12.2621 5.69875 12.8228 5.7437L15.8667 5.98773C17.1967 6.09435 17.7359 7.75411 16.7226 8.62212L14.4035 10.6087C13.9763 10.9746 13.7898 11.5488 13.9203 12.0959L14.6288 15.0663C14.9384 16.3641 13.5265 17.3899 12.3879 16.6944L9.78183 15.1027C9.30181 14.8095 8.69809 14.8095 8.21807 15.1027L5.61205 16.6944C4.4734 17.3899 3.06152 16.3641 3.3711 15.0663L4.07964 12.0959C4.21015 11.5488 4.02359 10.9746 3.59641 10.6087L1.27727 8.62212C0.26396 7.75411 0.803247 6.09435 2.13323 5.98773L5.17715 5.7437C5.73783 5.69875 6.22625 5.34389 6.44226 4.82454L7.61497 2.00501Z" fill="#847C70"/>
</svg>
